<?xml version="1.0" encoding="UTF-8"?><!-- Generator: Adobe Illustrator 23.0.3, SVG Export Plug-In . SVG Version: 6.00 Build 0)  --><svg xmlns="http://www.w3.org/2000/svg" enable-background="new 0 0 323.9 282.3" id="Layer_1" version="1.1" viewBox="0 0 323.9 282.3" x="0px" xml:space="preserve" y="0px">
<g>
	<g id="change1_1"><polygon fill="#B2FF99" points="47.1 0 17.8 252.8 272.1 282.3 301.6 27.9"/></g>
	<g id="change2_9">
			<rect fill="#96EF76" height="221.2" transform="matrix(.1022 -.9948 .9948 .1022 85.418 225.21)" width="2" x="166.5" y="-45.3"/>
	</g>
	<g id="change2_2">
			<rect fill="#96EF76" height="221.2" transform="matrix(.1022 -.9948 .9948 .1022 61.875 241.04)" width="2" x="163.5" y="-24.4"/>
	</g>
	<g id="change2_3">
			<rect fill="#96EF76" height="221.2" transform="matrix(.1022 -.9948 .9948 .1022 39.246 258.08)" width="2" x="161.6" y="-3.3"/>
	</g>
	<g id="change2_7">
			<rect fill="#96EF76" height="221.2" transform="matrix(.1022 -.9948 .9948 .1022 16.617 275.12)" width="2" x="159.7" y="17.7"/>
	</g>
	<g id="change2_5">
			<rect fill="#96EF76" height="221.2" transform="matrix(.1022 -.9948 .9948 .1022 -5.0977 293.38)" width="2" x="159" y="38.9"/>
	</g>
	<g id="change2_4">
			<rect fill="#96EF76" height="221.2" transform="matrix(.1022 -.9948 .9948 .1022 -27.727 310.42)" width="2" x="157.1" y="60"/>
	</g>
	<g id="change2_6">
			<rect fill="#96EF76" height="221.2" transform="matrix(.1022 -.9948 .9948 .1022 -51.268 326.25)" width="2" x="154.1" y="80.9"/>
	</g>
	<g id="change2_1">
			<rect fill="#96EF76" height="221.2" transform="matrix(.1022 -.9948 .9948 .1022 -76.177 340.26)" width="2" x="149.4" y="101.7"/>
	</g>
	<g id="change2_8">
			<rect fill="#96EF76" height="221.2" transform="matrix(.1022 -.9948 .9948 .1022 -98.803 357.3)" width="2" x="147.5" y="122.8"/>
	</g>
	<g id="change3_1"><polygon fill="#FFD9E0" opacity=".8" points="258.6 0 234.8 24.8 301.6 76.6 323.9 54"/></g>
	<g id="change3_2"><path d="m0 218c2.3-0.8 17-16.8 20.4-17s64.9 66.1 64.9 66.1l-24.9 15.2-60.4-64.3z" fill="#FFD9E0" opacity=".8"/></g>
</g>
</svg>