<?xml version="1.0" encoding="UTF-8"?><!-- Generator: Adobe Illustrator 23.0.3, SVG Export Plug-In . SVG Version: 6.00 Build 0)  --><svg xmlns="http://www.w3.org/2000/svg" enable-background="new 0 0 281.6 275.3" id="Layer_1" version="1.1" viewBox="0 0 281.6 275.3" x="0px" xml:space="preserve" y="0px">
<g>
	<g id="change1_1"><path d="m23.4 20.6c-5 102.8-14.6 215.9 9.3 254.7 10.2-0.6 248.9-11.6 248.9-11.6l-258.2-243.1z" fill="inherit" opacity=".1"/></g>
	<g id="change2_1"><path d="m23.4 20.6s-5.3 201.6 15.1 247.6l243.1-4.5s-15.1-139.7-11.3-239.3l-246.9-3.8z" fill="#FFFF87"/></g>
	<g id="change3_1"><path d="m61.9 0.2c-0.1-2.2 23.2 14.4 23.2 14.4l-68.5 55.8-16.6-21.1s62.7-37 61.9-49.1z" fill="#FFD9E0" opacity=".8"/></g>
	<g id="change4_2">
			<rect fill="#FFE087" height="2" transform="matrix(.9998 -.019528 .019528 .9998 -1.1037 2.9081)" width="195.6" x="50.6" y="57"/>
	</g>
	<g id="change4_5">
			<rect fill="#FFE087" height="2" transform="matrix(.9997 -.023431 .023431 .9997 -1.9809 3.4998)" width="195.6" x="50.6" y="85.3"/>
	</g>
	<g id="change4_3">
			<rect fill="#FFE087" height="2" transform="matrix(.9999 -.015623 .015623 .9999 -1.8371 2.3323)" width="195.6" x="50.6" y="117.7"/>
	</g>
	<g id="change4_6">
		<rect fill="#FFE087" height="2" width="195.5" x="50.6" y="147.2"/>
	</g>
	<g id="change4_7">
		<rect fill="#FFE087" height="2" width="200.8" x="50.6" y="175.1"/>
	</g>
	<g id="change4_1">
		<rect fill="#FFE087" height="2" width="200.8" x="50.6" y="206.8"/>
	</g>
	<g id="change4_4">
		<path d="m57.6 241.3l-0.6-1.9c2.3-0.8 162.3-4 194.3-4.6v2c-65.4 1.3-190.3 3.9-193.7 4.5z" fill="#FFE087"/>
	</g>
</g>
</svg>